/* XPM */
static char * snowflake[] = {
"19 19 2 1",
". c #000000",
"* c #ffffff",
".........*.........",
".......*.*.*.......",
"..*.*...***...*.*..",
"...**....*....**...",
"..***..*.*.*..***..",
".....*..***..*.....",
"......*..*..*......",
".*..*..*.*.*..*..*.",
"..*..*..***..*..*..",
"*******************",
"..*..*..***..*..*..",
".*..*..*.*.*..*..*.",
"......*..*..*......",
".....*..***..*.....",
"..***..*.*.*..***..",
"...**....*....**...",
"..*.*...***...*.*..",
".......*.*.*.......",
".........*........."
};
